<svg width="249" height="50" viewBox="0 0 249 50" fill="none" xmlns="http://www.w3.org/2000/svg">
<path fill-rule="evenodd" clip-rule="evenodd" d="M2.58032 17.6435C4.37515 15.7106 6.89374 14.6123 9.53144 14.6123H17.4022C21.4565 14.6123 25.3978 15.9483 28.6164 18.4137L28.8952 18.6272C30.5924 19.9273 32.0232 21.5422 33.1092 23.3838C34.6193 25.9444 35.4157 28.8628 35.4157 31.8355V40.7633C35.4157 43.2996 34.3728 45.7243 32.5316 47.4687C29.0667 50.7512 23.6716 50.8533 20.0851 47.7041L19.9993 47.6287C17.975 45.8513 16.8145 43.2879 16.8145 40.5939V33.4697H9.36829C6.88367 33.4697 4.50081 32.4827 2.74392 30.7258C-0.819219 27.1626 -0.925539 21.4191 2.50327 17.7265L2.58032 17.6435ZM5.61611 20.617L5.69316 20.5341C6.68423 19.4667 8.07495 18.8603 9.53144 18.8603H17.4022C20.5226 18.8603 23.5561 19.8886 26.0334 21.7861L26.3121 21.9996C27.576 22.9677 28.6415 24.1703 29.4502 25.5417C30.5747 27.4485 31.1678 29.6218 31.1678 31.8355V40.7633C31.1678 42.1332 30.6046 43.4427 29.6101 44.3848C27.7388 46.1577 24.8249 46.2128 22.8879 44.512L22.8021 44.4366C21.6963 43.4657 21.0624 42.0655 21.0624 40.5939V31.6981C21.0624 30.3304 19.9537 29.2217 18.5861 29.2217H9.36829C8.01028 29.2217 6.70789 28.6823 5.74764 27.722C3.80015 25.7745 3.74204 22.6353 5.61611 20.617Z" fill="white"/>
<path fill-rule="evenodd" clip-rule="evenodd" d="M49.6 32.2735L49.5229 32.3565C47.7281 34.2894 45.2095 35.3877 42.5718 35.3877H34.701C30.6467 35.3877 26.7054 34.0517 23.4868 31.5863L26.0699 28.2139C28.5471 30.1114 31.5806 31.1397 34.701 31.1397H42.5718C44.0283 31.1397 45.419 30.5333 46.4101 29.4659L46.4871 29.383C48.3612 27.3647 48.3031 24.2255 46.3556 22.278C45.3953 21.3177 44.0929 20.7783 42.7349 20.7783H33.5171C32.1495 20.7783 31.0408 19.6696 31.0408 18.3019V9.40607C31.0408 7.93452 30.4069 6.53429 29.3012 5.56336L29.2154 5.48802C27.2783 3.78716 24.3644 3.84228 22.4931 5.61517C21.4987 6.55726 20.9354 7.86683 20.9354 9.23667V18.1645C20.9354 20.3782 21.5285 22.5515 22.653 24.4583C23.4617 25.8297 24.5272 27.0323 25.7911 28.0004L26.0699 28.2139L23.4868 31.5863L23.2081 31.3728C21.5108 30.0727 20.08 28.4578 18.994 26.6162C17.4839 24.0556 16.6875 21.1372 16.6875 18.1645V9.23667C16.6875 6.70036 17.7304 4.27566 19.5716 2.53134C23.0365 -0.751223 28.4316 -0.853273 32.0181 2.29592L32.1039 2.37125C32.1039 2.37124 32.1039 2.37126 32.1039 2.37125C34.1282 4.14872 35.2887 6.71213 35.2887 9.40607V16.5303H42.7349C45.2196 16.5303 47.6024 17.5173 49.3593 19.2742C52.9224 22.8374 53.0288 28.5809 49.6 32.2735Z" fill="#DB479D"/>
<path d="M31.168 30.6279L35.2884 31.1868V35.6575H31.168V30.6279Z" fill="#DB479D"/>
<path d="M77.9437 11.6C77.5637 10.9 77.0138 10.37 76.2938 10.01C75.5938 9.62999 74.7637 9.43999 73.8037 9.43999C72.1437 9.43999 70.8138 9.98999 69.8138 11.09C68.8138 12.17 68.3138 13.62 68.3138 15.44C68.3138 17.38 68.8337 18.9 69.8737 20C70.9337 21.08 72.3838 21.62 74.2238 21.62C75.4838 21.62 76.5438 21.3 77.4038 20.66C78.2838 20.02 78.9238 19.1 79.3238 17.9H72.8138V14.12H83.9738V18.89C83.5938 20.17 82.9438 21.36 82.0238 22.46C81.1238 23.56 79.9738 24.45 78.5738 25.13C77.1738 25.81 75.5938 26.15 73.8338 26.15C71.7538 26.15 69.8938 25.7 68.2538 24.8C66.6338 23.88 65.3637 22.61 64.4437 20.99C63.5437 19.37 63.0938 17.52 63.0938 15.44C63.0938 13.36 63.5437 11.51 64.4437 9.88999C65.3637 8.24999 66.6338 6.97999 68.2538 6.07999C69.8738 5.15999 71.7237 4.69999 73.8037 4.69999C76.3237 4.69999 78.4437 5.30999 80.1637 6.52999C81.9037 7.74999 83.0538 9.43999 83.6138 11.6H77.9437ZM103.915 9.25999L93.4154 33.95H87.8954L91.7354 25.43L84.9254 9.25999H90.6553L94.5254 19.73L98.3653 9.25999H103.915ZM115.97 9.07999C117.93 9.07999 119.49 9.71999 120.65 11C121.83 12.26 122.42 14 122.42 16.22V26H117.32V16.91C117.32 15.79 117.03 14.92 116.45 14.3C115.87 13.68 115.09 13.37 114.11 13.37C113.13 13.37 112.35 13.68 111.77 14.3C111.19 14.92 110.9 15.79 110.9 16.91V26H105.77V9.25999H110.9V11.48C111.42 10.74 112.12 10.16 113 9.73999C113.88 9.29999 114.87 9.07999 115.97 9.07999ZM141.765 17.36C141.765 17.84 141.735 18.34 141.675 18.86H130.065C130.145 19.9 130.475 20.7 131.055 21.26C131.655 21.8 132.385 22.07 133.245 22.07C134.525 22.07 135.415 21.53 135.915 20.45H141.375C141.095 21.55 140.585 22.54 139.845 23.42C139.125 24.3 138.215 24.99 137.115 25.49C136.015 25.99 134.785 26.24 133.425 26.24C131.785 26.24 130.325 25.89 129.045 25.19C127.765 24.49 126.765 23.49 126.045 22.19C125.325 20.89 124.965 19.37 124.965 17.63C124.965 15.89 125.315 14.37 126.015 13.07C126.735 11.77 127.735 10.77 129.015 10.07C130.295 9.36999 131.765 9.01999 133.425 9.01999C135.045 9.01999 136.485 9.35999 137.745 10.04C139.005 10.72 139.985 11.69 140.685 12.95C141.405 14.21 141.765 15.68 141.765 17.36ZM136.515 16.01C136.515 15.13 136.215 14.43 135.615 13.91C135.015 13.39 134.265 13.13 133.365 13.13C132.505 13.13 131.775 13.38 131.175 13.88C130.595 14.38 130.235 15.09 130.095 16.01H136.515ZM143.451 17.63C143.451 15.89 143.801 14.37 144.501 13.07C145.221 11.77 146.211 10.77 147.471 10.07C148.751 9.36999 150.211 9.01999 151.851 9.01999C153.951 9.01999 155.701 9.56999 157.101 10.67C158.521 11.77 159.451 13.32 159.891 15.32H154.431C153.971 14.04 153.081 13.4 151.761 13.4C150.821 13.4 150.071 13.77 149.511 14.51C148.951 15.23 148.671 16.27 148.671 17.63C148.671 18.99 148.951 20.04 149.511 20.78C150.071 21.5 150.821 21.86 151.761 21.86C153.081 21.86 153.971 21.22 154.431 19.94H159.891C159.451 21.9 158.521 23.44 157.101 24.56C155.681 25.68 153.931 26.24 151.851 26.24C150.211 26.24 148.751 25.89 147.471 25.19C146.211 24.49 145.221 23.49 144.501 22.19C143.801 20.89 143.451 19.37 143.451 17.63ZM170.255 26.24C168.615 26.24 167.135 25.89 165.815 25.19C164.515 24.49 163.485 23.49 162.725 22.19C161.985 20.89 161.615 19.37 161.615 17.63C161.615 15.91 161.995 14.4 162.755 13.1C163.515 11.78 164.555 10.77 165.875 10.07C167.195 9.36999 168.675 9.01999 170.315 9.01999C171.955 9.01999 173.435 9.36999 174.755 10.07C176.075 10.77 177.115 11.78 177.875 13.1C178.635 14.4 179.015 15.91 179.015 17.63C179.015 19.35 178.625 20.87 177.845 22.19C177.085 23.49 176.035 24.49 174.695 25.19C173.375 25.89 171.895 26.24 170.255 26.24ZM170.255 21.8C171.235 21.8 172.065 21.44 172.745 20.72C173.445 20 173.795 18.97 173.795 17.63C173.795 16.29 173.455 15.26 172.775 14.54C172.115 13.82 171.295 13.46 170.315 13.46C169.315 13.46 168.485 13.82 167.825 14.54C167.165 15.24 166.835 16.27 166.835 17.63C166.835 18.97 167.155 20 167.795 20.72C168.455 21.44 169.275 21.8 170.255 21.8ZM186.867 3.79999V26H181.737V3.79999H186.867ZM198.205 26.24C196.565 26.24 195.085 25.89 193.765 25.19C192.465 24.49 191.435 23.49 190.675 22.19C189.935 20.89 189.565 19.37 189.565 17.63C189.565 15.91 189.945 14.4 190.705 13.1C191.465 11.78 192.505 10.77 193.825 10.07C195.145 9.36999 196.625 9.01999 198.265 9.01999C199.905 9.01999 201.385 9.36999 202.705 10.07C204.025 10.77 205.065 11.78 205.825 13.1C206.585 14.4 206.965 15.91 206.965 17.63C206.965 19.35 206.575 20.87 205.795 22.19C205.035 23.49 203.985 24.49 202.645 25.19C201.325 25.89 199.845 26.24 198.205 26.24ZM198.205 21.8C199.185 21.8 200.015 21.44 200.695 20.72C201.395 20 201.745 18.97 201.745 17.63C201.745 16.29 201.405 15.26 200.725 14.54C200.065 13.82 199.245 13.46 198.265 13.46C197.265 13.46 196.435 13.82 195.775 14.54C195.115 15.24 194.785 16.27 194.785 17.63C194.785 18.97 195.105 20 195.745 20.72C196.405 21.44 197.225 21.8 198.205 21.8ZM216.046 9.01999C217.226 9.01999 218.256 9.25999 219.136 9.73999C220.036 10.22 220.726 10.85 221.206 11.63V9.25999H226.336V25.97C226.336 27.51 226.026 28.9 225.406 30.14C224.806 31.4 223.876 32.4 222.616 33.14C221.376 33.88 219.826 34.25 217.966 34.25C215.486 34.25 213.476 33.66 211.936 32.48C210.396 31.32 209.516 29.74 209.296 27.74H214.366C214.526 28.38 214.906 28.88 215.506 29.24C216.106 29.62 216.846 29.81 217.726 29.81C218.786 29.81 219.626 29.5 220.246 28.88C220.886 28.28 221.206 27.31 221.206 25.97V23.6C220.706 24.38 220.016 25.02 219.136 25.52C218.256 26 217.226 26.24 216.046 26.24C214.666 26.24 213.416 25.89 212.296 25.19C211.176 24.47 210.286 23.46 209.626 22.16C208.986 20.84 208.666 19.32 208.666 17.6C208.666 15.88 208.986 14.37 209.626 13.07C210.286 11.77 211.176 10.77 212.296 10.07C213.416 9.36999 214.666 9.01999 216.046 9.01999ZM221.206 17.63C221.206 16.35 220.846 15.34 220.126 14.6C219.426 13.86 218.566 13.49 217.546 13.49C216.526 13.49 215.656 13.86 214.936 14.6C214.236 15.32 213.886 16.32 213.886 17.6C213.886 18.88 214.236 19.9 214.936 20.66C215.656 21.4 216.526 21.77 217.546 21.77C218.566 21.77 219.426 21.4 220.126 20.66C220.846 19.92 221.206 18.91 221.206 17.63ZM247.148 9.25999L236.648 33.95H231.128L234.968 25.43L228.157 9.25999H233.888L237.758 19.73L241.598 9.25999H247.148Z" fill="white"/>
<path d="M62.7695 38.718C62.7695 37.494 63.0515 36.396 63.6155 35.424C64.1915 34.452 64.9655 33.696 65.9375 33.156C66.9215 32.604 67.9955 32.328 69.1595 32.328C70.4915 32.328 71.6735 32.658 72.7055 33.318C73.7495 33.966 74.5055 34.89 74.9735 36.09H72.5075C72.1835 35.43 71.7335 34.938 71.1575 34.614C70.5815 34.29 69.9155 34.128 69.1595 34.128C68.3315 34.128 67.5935 34.314 66.9455 34.686C66.2975 35.058 65.7875 35.592 65.4155 36.288C65.0555 36.984 64.8755 37.794 64.8755 38.718C64.8755 39.642 65.0555 40.452 65.4155 41.148C65.7875 41.844 66.2975 42.384 66.9455 42.768C67.5935 43.14 68.3315 43.326 69.1595 43.326C69.9155 43.326 70.5815 43.164 71.1575 42.84C71.7335 42.516 72.1835 42.024 72.5075 41.364H74.9735C74.5055 42.564 73.7495 43.488 72.7055 44.136C71.6735 44.784 70.4915 45.108 69.1595 45.108C67.9835 45.108 66.9095 44.838 65.9375 44.298C64.9655 43.746 64.1915 42.984 63.6155 42.012C63.0515 41.04 62.7695 39.942 62.7695 38.718ZM79.4274 31.68V45H77.3754V31.68H79.4274ZM83.1655 33.768C82.7935 33.768 82.4815 33.642 82.2295 33.39C81.9775 33.138 81.8515 32.826 81.8515 32.454C81.8515 32.082 81.9775 31.77 82.2295 31.518C82.4815 31.266 82.7935 31.14 83.1655 31.14C83.5255 31.14 83.8315 31.266 84.0835 31.518C84.3355 31.77 84.4615 32.082 84.4615 32.454C84.4615 32.826 84.3355 33.138 84.0835 33.39C83.8315 33.642 83.5255 33.768 83.1655 33.768ZM84.1735 35.082V45H82.1215V35.082H84.1735ZM91.8716 34.92C92.6516 34.92 93.3476 35.082 93.9596 35.406C94.5836 35.73 95.0696 36.21 95.4176 36.846C95.7656 37.482 95.9396 38.25 95.9396 39.15V45H93.9056V39.456C93.9056 38.568 93.6836 37.89 93.2396 37.422C92.7956 36.942 92.1896 36.702 91.4216 36.702C90.6536 36.702 90.0416 36.942 89.5856 37.422C89.1416 37.89 88.9196 38.568 88.9196 39.456V45H86.8676V35.082H88.9196V36.216C89.2556 35.808 89.6816 35.49 90.1976 35.262C90.7256 35.034 91.2836 34.92 91.8716 34.92ZM99.601 33.768C99.229 33.768 98.917 33.642 98.665 33.39C98.413 33.138 98.287 32.826 98.287 32.454C98.287 32.082 98.413 31.77 98.665 31.518C98.917 31.266 99.229 31.14 99.601 31.14C99.961 31.14 100.267 31.266 100.519 31.518C100.771 31.77 100.897 32.082 100.897 32.454C100.897 32.826 100.771 33.138 100.519 33.39C100.267 33.642 99.961 33.768 99.601 33.768ZM100.609 35.082V45H98.557V35.082H100.609ZM102.619 40.032C102.619 39.012 102.823 38.118 103.231 37.35C103.651 36.57 104.227 35.97 104.959 35.55C105.691 35.13 106.531 34.92 107.479 34.92C108.679 34.92 109.669 35.208 110.449 35.784C111.241 36.348 111.775 37.158 112.051 38.214H109.837C109.657 37.722 109.369 37.338 108.973 37.062C108.577 36.786 108.079 36.648 107.479 36.648C106.639 36.648 105.967 36.948 105.463 37.548C104.971 38.136 104.725 38.964 104.725 40.032C104.725 41.1 104.971 41.934 105.463 42.534C105.967 43.134 106.639 43.434 107.479 43.434C108.667 43.434 109.453 42.912 109.837 41.868H112.051C111.763 42.876 111.223 43.68 110.431 44.28C109.639 44.868 108.655 45.162 107.479 45.162C106.531 45.162 105.691 44.952 104.959 44.532C104.227 44.1 103.651 43.5 103.231 42.732C102.823 41.952 102.619 41.052 102.619 40.032ZM127.272 32.49V45H125.22V36.432L121.404 45H119.982L116.148 36.432V45H114.096V32.49H116.31L120.702 42.3L125.076 32.49H127.272ZM129.285 39.996C129.285 39 129.489 38.118 129.897 37.35C130.317 36.582 130.881 35.988 131.589 35.568C132.309 35.136 133.101 34.92 133.965 34.92C134.745 34.92 135.423 35.076 135.999 35.388C136.587 35.688 137.055 36.066 137.403 36.522V35.082H139.473V45H137.403V43.524C137.055 43.992 136.581 44.382 135.981 44.694C135.381 45.006 134.697 45.162 133.929 45.162C133.077 45.162 132.297 44.946 131.589 44.514C130.881 44.07 130.317 43.458 129.897 42.678C129.489 41.886 129.285 40.992 129.285 39.996ZM137.403 40.032C137.403 39.348 137.259 38.754 136.971 38.25C136.695 37.746 136.329 37.362 135.873 37.098C135.417 36.834 134.925 36.702 134.397 36.702C133.869 36.702 133.377 36.834 132.921 37.098C132.465 37.35 132.093 37.728 131.805 38.232C131.529 38.724 131.391 39.312 131.391 39.996C131.391 40.68 131.529 41.28 131.805 41.796C132.093 42.312 132.465 42.708 132.921 42.984C133.389 43.248 133.881 43.38 134.397 43.38C134.925 43.38 135.417 43.248 135.873 42.984C136.329 42.72 136.695 42.336 136.971 41.832C137.259 41.316 137.403 40.716 137.403 40.032ZM145.768 45.162C144.988 45.162 144.286 45.024 143.662 44.748C143.05 44.46 142.564 44.076 142.204 43.596C141.844 43.104 141.652 42.558 141.628 41.958H143.752C143.788 42.378 143.986 42.732 144.346 43.02C144.718 43.296 145.18 43.434 145.732 43.434C146.308 43.434 146.752 43.326 147.064 43.11C147.388 42.882 147.55 42.594 147.55 42.246C147.55 41.874 147.37 41.598 147.01 41.418C146.662 41.238 146.104 41.04 145.336 40.824C144.592 40.62 143.986 40.422 143.518 40.23C143.05 40.038 142.642 39.744 142.294 39.348C141.958 38.952 141.79 38.43 141.79 37.782C141.79 37.254 141.946 36.774 142.258 36.342C142.57 35.898 143.014 35.55 143.59 35.298C144.178 35.046 144.85 34.92 145.606 34.92C146.734 34.92 147.64 35.208 148.324 35.784C149.02 36.348 149.392 37.122 149.44 38.106H147.388C147.352 37.662 147.172 37.308 146.848 37.044C146.524 36.78 146.086 36.648 145.534 36.648C144.994 36.648 144.58 36.75 144.292 36.954C144.004 37.158 143.86 37.428 143.86 37.764C143.86 38.028 143.956 38.25 144.148 38.43C144.34 38.61 144.574 38.754 144.85 38.862C145.126 38.958 145.534 39.084 146.074 39.24C146.794 39.432 147.382 39.63 147.838 39.834C148.306 40.026 148.708 40.314 149.044 40.698C149.38 41.082 149.554 41.592 149.566 42.228C149.566 42.792 149.41 43.296 149.098 43.74C148.786 44.184 148.342 44.532 147.766 44.784C147.202 45.036 146.536 45.162 145.768 45.162ZM154.178 36.756V42.246C154.178 42.618 154.262 42.888 154.43 43.056C154.61 43.212 154.91 43.29 155.33 43.29H156.59V45H154.97C154.046 45 153.338 44.784 152.846 44.352C152.354 43.92 152.108 43.218 152.108 42.246V36.756H150.938V35.082H152.108V32.616H154.178V35.082H156.59V36.756H154.178ZM167.571 39.798C167.571 40.17 167.547 40.506 167.499 40.806H159.921C159.981 41.598 160.275 42.234 160.803 42.714C161.331 43.194 161.979 43.434 162.747 43.434C163.851 43.434 164.631 42.972 165.087 42.048H167.301C167.001 42.96 166.455 43.71 165.663 44.298C164.883 44.874 163.911 45.162 162.747 45.162C161.799 45.162 160.947 44.952 160.191 44.532C159.447 44.1 158.859 43.5 158.427 42.732C158.007 41.952 157.797 41.052 157.797 40.032C157.797 39.012 158.001 38.118 158.409 37.35C158.829 36.57 159.411 35.97 160.155 35.55C160.911 35.13 161.775 34.92 162.747 34.92C163.683 34.92 164.517 35.124 165.249 35.532C165.981 35.94 166.551 36.516 166.959 37.26C167.367 37.992 167.571 38.838 167.571 39.798ZM165.429 39.15C165.417 38.394 165.147 37.788 164.619 37.332C164.091 36.876 163.437 36.648 162.657 36.648C161.949 36.648 161.343 36.876 160.839 37.332C160.335 37.776 160.035 38.382 159.939 39.15H165.429ZM171.642 36.522C171.942 36.018 172.338 35.628 172.83 35.352C173.334 35.064 173.928 34.92 174.612 34.92V37.044H174.09C173.286 37.044 172.674 37.248 172.254 37.656C171.846 38.064 171.642 38.772 171.642 39.78V45H169.59V35.082H171.642V36.522Z" fill="white" fill-opacity="0.6"/>
</svg>
